<svg width="31" height="34" viewBox="0 0 31 34" fill="none" xmlns="http://www.w3.org/2000/svg">
<path fill-rule="evenodd" clip-rule="evenodd" d="M0.666626 11.3164L13.5671 18.7645C13.706 18.8447 13.8517 18.9026 14 18.9394V33.3846L1.58669 26.0384C1.01641 25.7009 0.666626 25.0874 0.666626 24.4248V11.3164ZM30.6666 11.1183V24.4248C30.6666 25.0874 30.3168 25.7009 29.7466 26.0384L17.3333 33.3846V18.8128C17.3635 18.7977 17.3935 18.7816 17.4232 18.7645L30.6666 11.1183Z" fill="#28B30E"/>
<path opacity="0.499209" fill-rule="evenodd" clip-rule="evenodd" d="M1.07184 7.7013C1.22941 7.50232 1.4283 7.33414 1.66018 7.21064L14.7852 0.219977C15.3362 -0.0734886 15.9971 -0.0734886 16.5481 0.219977L29.6731 7.21064C29.8518 7.30584 30.0109 7.42759 30.1467 7.56954L15.7565 15.8777C15.6619 15.9323 15.5746 15.9948 15.4951 16.0639C15.4156 15.9948 15.3284 15.9323 15.2338 15.8777L1.07184 7.7013Z" fill="#28B30E"/>
</svg>
